# xmcd
#
# Track frame offsets:
#	150
#	15851
#	32338
#	44923
#	59782
#	71728
#	88740
#	104231
#	118352
#	132769
#	149953
#	167232
#	179543
#	194203
#	204262
#	218222
#	237552
#	252491
#	267449
#	283300
#
# Disc length: 3956 seconds
#
# Revision: 0
# Processed by: cddbd v1.5.2PL0 Copyright (c) Steve Scherf et al.
# Submitted via: EasyCDDAExtractor 16.0.8.1
#
DISCID=5a0f7214
DTITLE=Βασίλης Τσιτσάνης - Βασίλης Τσιτσάνης 10
DYEAR=1900
DGENRE=ÑåìðÝôéêá
TTITLE0=Ρίτα Σακελλαρίου - Τα λιμανια
TTITLE1=Στράτος Κύπριος - Μεινε Αγαπη Μου Κοντα Μου
TTITLE2=Σωτηρία Μπέλλου - Αρμπας Περνα
TTITLE3=Γλυκερία - Συννεφιασμενη Κυριακη
TTITLE4=Κώστας Μαντζόπουλος and θίασος - Ο Σακαφλιας (Διασευη Σταύροςς Ξαρχακος)
TTITLE5=Καίτη Ντάλη - Πριγκιπομαστουρηδες
TTITLE6=Νίκος Γιουλάκης - Μη Μου Ξαναφυγεις Πια
TTITLE7=Αλεξάνδρα and Βασίλης Τσιτσάνης - Το Καραβι
TTITLE8=Στέλιος Καζαντζίδης - Βαρια Χτυπουν Τα Συμαντρα
TTITLE9=Μαρία Σπυροπούλου - Αχ Αυτοι Οι Ερωτες
TTITLE10=Γιώργος Μαργαρίτης - Μπαρμπαρια
TTITLE11=Περικλής Περάκης and Γεωργία Λόγγου - Αθηναιϊσσα
TTITLE12=Μαίρη Μαράντη - Θελω Μαγκα Και Σατραπη
TTITLE13=Λευτέρης Πανταζής and Χαρούλα Λαμπράκη - Η Μαγισσα Της Αραπιας
TTITLE14=Σωτηρία Μπέλλου - Ο Μαχαλομαγκας
TTITLE15=Νίκος Νικολάκης - Το βαπορι Απ' Την Περσια
TTITLE16=Σωτηρία Μπέλλου - ειν' Η Ωρα Περασμενη
TTITLE17=Γιάννης Αλεξανδρής - Μες Την Πολλη Σκοτουρα Μου
TTITLE18=μαρίκα Νίνου and Βασίλης Τσιτσάνης - Αποψε Κανεις Μπαμ
TTITLE19=Βασίλης Ηλιάδης - Αποψε Στις ακρογιαλιες (Οργανικο)
EXTD=
EXTT0=
EXTT1=
EXTT2=
EXTT3=
EXTT4=
EXTT5=
EXTT6=
EXTT7=
EXTT8=
EXTT9=
EXTT10=
EXTT11=
EXTT12=
EXTT13=
EXTT14=
EXTT15=
EXTT16=
EXTT17=
EXTT18=
EXTT19=
PLAYORDER=
